<?xml version="1.0" encoding="UTF-8" standalone="no"?>
<!-- Generator: Adobe Illustrator 22.0.1, SVG Export Plug-In . SVG Version: 6.00 Build 0)  -->

<svg
   xmlns:dc="http://purl.org/dc/elements/1.1/"
   xmlns:cc="http://creativecommons.org/ns#"
   xmlns:rdf="http://www.w3.org/1999/02/22-rdf-syntax-ns#"
   xmlns:svg="http://www.w3.org/2000/svg"
   xmlns="http://www.w3.org/2000/svg"
   xmlns:sodipodi="http://sodipodi.sourceforge.net/DTD/sodipodi-0.dtd"
   xmlns:inkscape="http://www.inkscape.org/namespaces/inkscape"
   version="1.1"
   id="Ebene_1"
   x="0px"
   y="0px"
   viewBox="0 0 336.29999 97.300001"
   xml:space="preserve"
   sodipodi:docname="joolia-text-only.svg"
   width="336.29999"
   height="97.300003"
   inkscape:version="0.92.3 (2405546, 2018-03-11)"><metadata
   id="metadata54"><rdf:RDF><cc:Work
       rdf:about=""><dc:format>image/svg+xml</dc:format><dc:type
         rdf:resource="http://purl.org/dc/dcmitype/StillImage" /><dc:title /></cc:Work></rdf:RDF></metadata><defs
   id="defs52" /><sodipodi:namedview
   pagecolor="#ffffff"
   bordercolor="#666666"
   borderopacity="1"
   objecttolerance="10"
   gridtolerance="10"
   guidetolerance="10"
   inkscape:pageopacity="0"
   inkscape:pageshadow="2"
   inkscape:window-width="1920"
   inkscape:window-height="1018"
   id="namedview50"
   showgrid="false"
   fit-margin-top="0"
   fit-margin-left="0"
   fit-margin-right="0"
   fit-margin-bottom="0"
   inkscape:zoom="4.9232915"
   inkscape:cx="83.539794"
   inkscape:cy="47.699998"
   inkscape:window-x="-8"
   inkscape:window-y="623"
   inkscape:window-maximized="1"
   inkscape:current-layer="Ebene_1" />
<style
   type="text/css"
   id="style33">
	.st0{fill:#1D1D1B;}
</style>
<g
   id="g47"
   transform="translate(-10.7,-11.3)">
	<path
   class="st0"
   d="M 72.7,11.3 V 76.9 C 71.6,93.9 57,108.5 38.6,108.5 H 37.5 C 26.4,108.5 16.8,104 10.7,95.1 l 7.2,-11 c 5,6.1 10.7,11 19.6,11 12.1,0 21.9,-8.5 21.9,-20.7 V 11.3 Z"
   id="path35"
   inkscape:connector-curvature="0"
   style="fill:#1d1d1b" />
	<path
   class="st0"
   d="m 149,73.7 c 0,19.4 -15.1,34.6 -33.6,34.6 -18.6,0 -33.7,-15.2 -33.7,-34.6 0,-19.2 15.1,-34.6 33.7,-34.6 18.4,0 33.6,15.4 33.6,34.6 z m -12.3,0 c 0,-12.1 -9.6,-22 -21.4,-22 -12,0 -21.6,9.9 -21.6,22 0,12.1 9.6,22 21.6,22 11.9,0 21.4,-9.9 21.4,-22 z"
   id="path37"
   inkscape:connector-curvature="0"
   style="fill:#1d1d1b" />
	<path
   class="st0"
   d="m 224.8,73.7 c 0,19.4 -15.1,34.6 -33.6,34.6 -18.6,0 -33.7,-15.2 -33.7,-34.6 0,-19.2 15.1,-34.6 33.7,-34.6 18.4,0 33.6,15.4 33.6,34.6 z m -12.3,0 c 0,-12.1 -9.6,-22 -21.4,-22 -12,0 -21.6,9.9 -21.6,22 0,12.1 9.6,22 21.6,22 11.8,0 21.4,-9.9 21.4,-22 z"
   id="path39"
   inkscape:connector-curvature="0"
   style="fill:#1d1d1b" />
	<path
   class="st0"
   d="m 247.1,108.4 h -12.7 v -97 h 12.7 z"
   id="path41"
   inkscape:connector-curvature="0"
   style="fill:#1d1d1b" />
	<path
   class="st0"
   d="m 263.8,11.7 c 3.5,0 6.5,3.1 6.5,6.5 0,3.6 -3,6.5 -6.5,6.5 -3.6,0 -6.5,-2.9 -6.5,-6.5 0,-3.5 2.9,-6.5 6.5,-6.5 z m 6.4,96.6 H 257.7 V 37.1 h 12.5 z"
   id="path43"
   inkscape:connector-curvature="0"
   style="fill:#1d1d1b" />
	<path
   class="st0"
   d="m 347,38.9 v 69.7 h -12.6 v -7.7 c -5.7,4.9 -12.9,7.7 -21.1,7.7 -18.4,0 -33.3,-15.2 -33.3,-34.6 0,-18.9 15,-34.3 33.3,-34.3 8.2,0 15.4,2.9 21.1,7.7 V 38.9 Z M 334.3,77 v -5.9 c -1.5,-10.7 -10.4,-18.9 -21.1,-18.9 -11.7,0 -21.2,9.9 -21.2,21.7 0,12.1 9.6,22 21.2,22 10.7,-0.1 19.6,-8.3 21.1,-18.9 z"
   id="path45"
   inkscape:connector-curvature="0"
   style="fill:#1d1d1b" />
</g>
<path
   style="fill:#ffffff;fill-opacity:1;stroke-width:0.20311615"
   d="M 22.428244,96.874027 C 17.075182,96.212518 11.877206,94.314477 7.8038813,91.533939 6.0980757,90.369521 1.6950436,86.102046 0.75128581,84.698475 L 0.13669922,83.784453 3.4682887,78.706549 c 1.8323743,-2.792847 3.4049818,-5.198969 3.4946834,-5.346935 0.1170422,-0.193068 1.0187061,0.58586 3.1932899,2.758614 4.355577,4.351913 7.43685,6.225776 11.984449,7.288288 2.230528,0.521148 7.209321,0.518123 9.630876,-0.0058 9.384664,-2.030646 15.745614,-8.74584 16.851328,-17.78978 0.136973,-1.120344 0.210428,-12.87248 0.210428,-33.666501 V -9.5804376e-4 h 6.503718 6.50372 L 61.778628,34.274892 l -0.06215,34.27585 -0.437276,1.761187 c -3.375896,13.596827 -13.59262,23.509679 -26.974842,26.172535 -2.536586,0.504742 -9.180489,0.722675 -11.876112,0.389563 z"
   id="path34"
   inkscape:connector-curvature="0" /><path
   style="fill:#ffffff;fill-opacity:1;stroke-width:0.20311615"
   d="M 100.58935,96.667368 C 98.404736,96.397496 94.730843,95.43877 92.477698,94.550577 83.241023,90.909475 75.993983,83.094727 72.805368,73.33719 71.570082,69.55707 71.276871,67.419202 71.285313,62.254141 c 0.0067,-4.07571 0.06643,-4.943741 0.468504,-6.804391 1.543059,-7.140686 4.510247,-12.624108 9.567731,-17.681353 6.56703,-6.566721 14.288757,-9.807366 23.368732,-9.807366 4.33028,0 7.89729,0.662129 11.8823,2.205662 5.52394,2.139618 11.15226,6.452833 14.70368,11.268043 7.79083,10.563244 9.09236,24.626882 3.37416,36.459348 -4.59568,9.509675 -13.15482,16.186635 -23.56198,18.380635 -2.35764,0.497029 -7.95852,0.706492 -10.49909,0.392649 z m 9.2659,-12.868594 c 4.86089,-1.246446 9.49009,-4.504527 12.31896,-8.670228 1.21545,-1.789827 2.52594,-4.665813 3.13935,-6.88959 0.65799,-2.385365 0.89039,-6.552498 0.51038,-9.15141 -1.24966,-8.546477 -7.35419,-15.60928 -15.51212,-17.947156 -7.50729,-2.15142 -15.763711,0.120116 -21.186499,5.828901 -3.818518,4.019907 -5.865574,8.840308 -6.111118,14.390442 -0.225707,5.101744 0.950209,9.36324 3.741108,13.557702 3.303437,4.96476 8.752871,8.412988 14.803889,9.367429 2.0761,0.327468 6.02585,0.09604 8.29605,-0.48609 z"
   id="path36"
   inkscape:connector-curvature="0" /><path
   style="fill:#ffffff;fill-opacity:1;stroke-width:0.20311615"
   d="m 175.98405,96.591996 c -9.19898,-1.327169 -17.13351,-6.172667 -22.67156,-13.845183 -1.58925,-2.201772 -3.89601,-6.809182 -4.71768,-9.422842 -1.94891,-6.199355 -2.18088,-13.409893 -0.62848,-19.535715 2.49464,-9.843983 8.94821,-17.931037 17.89487,-22.424319 6.50816,-3.268596 14.16949,-4.243654 21.43292,-2.727766 9.73217,2.031117 18.32864,8.775805 22.91399,17.978027 2.82205,5.663524 3.92651,10.780208 3.70281,17.154322 -0.18754,5.343962 -1.30379,9.72669 -3.70115,14.531797 -4.68281,9.385936 -13.2537,15.972546 -23.40664,17.987671 -2.8062,0.556969 -8.04535,0.704183 -10.81908,0.304008 z m 9.63352,-12.788759 c 7.15544,-1.850656 12.96321,-7.454598 15.22448,-14.690177 0.72204,-2.310373 0.96809,-4.024919 0.97201,-6.773369 0.009,-6.1245 -2.31542,-11.691885 -6.65335,-15.937747 -9.14609,-8.95195 -24.0369,-7.826406 -31.84317,2.406911 -6.09815,7.994114 -6.10389,19.191143 -0.0139,27.155626 3.37465,4.413395 8.49312,7.451247 14.0179,8.319743 2.11005,0.331699 6.03332,0.104237 8.29605,-0.480987 z"
   id="path38"
   inkscape:connector-curvature="0" /><path
   style="fill:#ffffff;fill-opacity:1;stroke-width:0.20311615"
   d="M 223.71635,48.645359 V 0.2021581 h 6.2966 6.2966 V 48.645359 97.08856 h -6.2966 -6.2966 z"
   id="path40"
   inkscape:connector-curvature="0" /><path
   style="fill:#ffffff;fill-opacity:1;stroke-width:0.20311615"
   d="M 247.0747,61.340118 V 25.794793 h 6.19504 6.19505 v 35.545325 35.545326 h -6.19505 -6.19504 z"
   id="path42"
   inkscape:connector-curvature="0" /><path
   style="fill:#ffffff;fill-opacity:1;stroke-width:0.20311615"
   d="m 300.08802,97.07643 c -8.03053,-0.59028 -15.69907,-4.279194 -21.2671,-10.230436 -4.67872,-5.000724 -7.56832,-10.849587 -8.93835,-18.092136 -0.2577,-1.362329 -0.34485,-2.914719 -0.34207,-6.093485 0.003,-3.835084 0.0583,-4.523683 0.54478,-6.825017 2.96211,-14.013336 13.55438,-24.466395 27.26067,-26.902398 2.4453,-0.434602 7.55275,-0.494899 9.95269,-0.1175 5.7494,0.904115 11.30884,3.300437 15.45775,6.662854 0.45836,0.371472 0.89252,0.675404 0.9648,0.675404 0.0723,0 0.13142,-1.919447 0.13142,-4.265439 v -4.265439 h 6.19504 6.19504 v 34.834419 34.834419 h -6.19504 -6.19504 V 93.43247 c 0,-2.122564 -0.0527,-3.859207 -0.11699,-3.859207 -0.0643,0 -0.63561,0.398701 -1.26948,0.886001 -6.45338,4.961176 -14.10916,7.224973 -22.37812,6.617166 z m 7.41374,-13.069072 c 5.01126,-1.279126 9.69518,-4.614467 12.61004,-8.979415 1.25868,-1.884845 2.02959,-3.504251 2.84171,-5.969411 0.52838,-1.603886 0.57459,-2.011142 0.6507,-5.735041 0.0778,-3.805351 0.0549,-4.114242 -0.45115,-6.093485 -3.46125,-13.537247 -18.18096,-20.32632 -30.31635,-13.982599 -7.9904,4.176943 -12.69589,13.340878 -11.4283,22.256592 0.53162,3.739216 2.15493,7.748274 4.27667,10.56204 5.23703,6.945122 13.67972,10.018277 21.81668,7.941319 z"
   id="path44"
   inkscape:connector-curvature="0" /><path
   style="fill:#ffffff;fill-opacity:1;stroke-width:0.20311615"
   d="m 252.15261,13.182293 c -1.38539,-0.205775 -2.32684,-0.673469 -3.42683,-1.702388 -1.37199,-1.28333 -1.94134,-2.6194887 -1.94944,-4.574914 -0.008,-1.9324777 0.66236,-3.4183499 2.14268,-4.7492884 3.07995,-2.76914162 7.74436,-1.85144015 9.84249,1.9364655 0.53449,0.9649542 0.60172,1.2792441 0.60172,2.8128229 0,2.0315435 -0.40988,3.0667404 -1.7503,4.420554 -1.44652,1.460987 -3.47679,2.151367 -5.46032,1.856748 z"
   id="path46"
   inkscape:connector-curvature="0" /></svg>
